<svg width="24.607056" height="24.000000" viewBox="0 0 24.6071 24" fill="none" xmlns="http://www.w3.org/2000/svg" xmlns:xlink="http://www.w3.org/1999/xlink">
	<desc>
			Created with Pixso.
	</desc>
	<defs/>
	<path id="Path" d="M12.3 0C5.5 0 0 5.5 0 12.3C0 17.74 3.52 22.34 8.41 23.97C9.02 24.08 9.25 23.71 9.25 23.39C9.25 23.09 9.24 22.13 9.24 21.1C6.15 21.66 5.35 20.34 5.1 19.65C4.96 19.3 4.36 18.2 3.84 17.91C3.41 17.68 2.79 17.11 3.82 17.1C4.79 17.08 5.49 17.99 5.72 18.36C6.82 20.22 8.59 19.7 9.3 19.37C9.41 18.57 9.73 18.04 10.08 17.73C7.35 17.42 4.49 16.36 4.49 11.65C4.49 10.31 4.96 9.21 5.75 8.35C5.62 8.04 5.19 6.78 5.87 5.09C5.87 5.09 6.9 4.76 9.25 6.35C10.24 6.07 11.28 5.93 12.33 5.93C13.38 5.93 14.42 6.07 15.41 6.35C17.76 4.75 18.79 5.09 18.79 5.09C19.47 6.78 19.03 8.04 18.91 8.35C19.7 9.21 20.17 10.3 20.17 11.65C20.17 16.37 17.3 17.42 14.56 17.73C15.01 18.11 15.39 18.85 15.39 20C15.39 21.65 15.37 22.97 15.37 23.39C15.37 23.71 15.61 24.09 16.22 23.97C18.66 23.15 20.79 21.58 22.29 19.48C23.79 17.39 24.6 14.88 24.6 12.3C24.6 5.5 19.1 0 12.3 0Z" fill="#FFFFFF" fill-opacity="1.000000" fill-rule="evenodd"/>
</svg>
